# xmcd
#
# Track frame offsets: 
#        150
#        25315
#        51315
#        71585
#        89380
#        117380
#        132555
#        139070
#        162280
#        174172
#        203497
#
# Disc length: 3013 seconds
#
# Revision: 0
# Processed by: cddbd v1.4PL0 Copyright (c) Steve Scherf et al.
# Submitted via: ExactAudioCopy v0.95a3
#
DISCID=990bc30b
DTITLE=John Campelljohn - Live im Meisenfrei (2001)
DYEAR=2001
DGENRE=Blues
TTITLE0=Love The One You're With
TTITLE1=Slow Down
TTITLE2=World Is Crazy
TTITLE3=Martha Mae
TTITLE4=Pretty Paula Doy
TTITLE5=Let's Go Twisted
TTITLE6=Highway Star
TTITLE7=Don't Get Your Fingers Dirty
TTITLE8=Wife and Family
TTITLE9=Put Your Breaks On
TTITLE10=Nobody's Business
EXTD=
EXTT0=
EXTT1=
EXTT2=
EXTT3=
EXTT4=
EXTT5=
EXTT6=
EXTT7=
EXTT8=
EXTT9=
EXTT10=
PLAYORDER=
